<mxfile host="Electron" modified="2023-11-05T03:22:50.834Z" agent="Mozilla/5.0 (Windows NT 10.0; Win64; x64) AppleWebKit/537.36 (KHTML, like Gecko) draw.io/22.0.3 Chrome/114.0.5735.289 Electron/25.8.4 Safari/537.36" etag="mX69qzIZ0YxltdhcHcAN" version="22.0.3" type="device">
  <diagram name="Page-1" id="f9U9xa3w1w7x5-3gpHlx">
    <mxGraphModel dx="1098" dy="828" grid="1" gridSize="10" guides="1" tooltips="1" connect="1" arrows="1" fold="1" page="1" pageScale="1" pageWidth="850" pageHeight="1100" math="0" shadow="0">
      <root>
        <mxCell id="0" />
        <mxCell id="1" parent="0" />
        <mxCell id="l4FqqeskqXj6y2RGuVp2-1" value="" style="rounded=0;whiteSpace=wrap;html=1;" vertex="1" parent="1">
          <mxGeometry width="850" height="90" as="geometry" />
        </mxCell>
        <mxCell id="l4FqqeskqXj6y2RGuVp2-2" style="edgeStyle=orthogonalEdgeStyle;rounded=0;orthogonalLoop=1;jettySize=auto;html=1;exitX=0.5;exitY=1;exitDx=0;exitDy=0;" edge="1" parent="1" source="l4FqqeskqXj6y2RGuVp2-1" target="l4FqqeskqXj6y2RGuVp2-1">
          <mxGeometry relative="1" as="geometry" />
        </mxCell>
        <mxCell id="l4FqqeskqXj6y2RGuVp2-3" value="" style="verticalLabelPosition=bottom;shadow=0;dashed=0;align=center;html=1;verticalAlign=top;strokeWidth=1;shape=mxgraph.mockup.graphics.simpleIcon;strokeColor=#999999;fontSize=13;fontColor=#0066CC;" vertex="1" parent="1">
          <mxGeometry x="30" y="20" width="50" height="50" as="geometry" />
        </mxCell>
        <mxCell id="l4FqqeskqXj6y2RGuVp2-4" value="Home" style="text;html=1;strokeColor=none;fillColor=none;align=center;verticalAlign=middle;whiteSpace=wrap;rounded=0;" vertex="1" parent="1">
          <mxGeometry x="385" y="30" width="80" height="30" as="geometry" />
        </mxCell>
        <mxCell id="l4FqqeskqXj6y2RGuVp2-5" value="Services" style="text;html=1;strokeColor=none;fillColor=none;align=center;verticalAlign=middle;whiteSpace=wrap;rounded=0;" vertex="1" parent="1">
          <mxGeometry x="610" y="30" width="80" height="30" as="geometry" />
        </mxCell>
        <mxCell id="l4FqqeskqXj6y2RGuVp2-6" value="About Us" style="text;html=1;strokeColor=none;fillColor=none;align=center;verticalAlign=middle;whiteSpace=wrap;rounded=0;" vertex="1" parent="1">
          <mxGeometry x="500" y="30" width="80" height="30" as="geometry" />
        </mxCell>
        <mxCell id="l4FqqeskqXj6y2RGuVp2-7" value="Contact Us" style="text;html=1;strokeColor=none;fillColor=none;align=center;verticalAlign=middle;whiteSpace=wrap;rounded=0;" vertex="1" parent="1">
          <mxGeometry x="720" y="30" width="80" height="30" as="geometry" />
        </mxCell>
        <mxCell id="l4FqqeskqXj6y2RGuVp2-8" value="" style="verticalLabelPosition=bottom;shadow=0;dashed=0;align=center;html=1;verticalAlign=top;strokeWidth=1;shape=mxgraph.mockup.graphics.simpleIcon;strokeColor=#999999;fontSize=13;fontColor=#0066CC;" vertex="1" parent="1">
          <mxGeometry y="90" width="850" height="360" as="geometry" />
        </mxCell>
        <mxCell id="l4FqqeskqXj6y2RGuVp2-9" value="&lt;h1&gt;Heading&lt;/h1&gt;&lt;p&gt;Lorem ipsum dolor sit amet, consectetur adipisicing elit,&lt;/p&gt;" style="text;html=1;strokeColor=none;fillColor=none;spacing=5;spacingTop=-20;whiteSpace=wrap;overflow=hidden;rounded=0;align=center;" vertex="1" parent="1">
          <mxGeometry x="335" y="210" width="180" height="90" as="geometry" />
        </mxCell>
        <mxCell id="l4FqqeskqXj6y2RGuVp2-10" value="" style="rounded=0;whiteSpace=wrap;html=1;" vertex="1" parent="1">
          <mxGeometry y="2376" width="850" height="290" as="geometry" />
        </mxCell>
        <mxCell id="l4FqqeskqXj6y2RGuVp2-11" value="&lt;h2&gt;Opening Hours&amp;nbsp;&lt;/h2&gt;&lt;p&gt;Lorem ipsum dolor sit amet, consectetur adipisicing elit&lt;/p&gt;&lt;p&gt;sed do eiusmod tempor incididunt ut labore et dolore magna aliqua.&lt;br&gt;&lt;/p&gt;" style="text;html=1;strokeColor=none;fillColor=none;spacing=5;spacingTop=-20;whiteSpace=wrap;overflow=hidden;rounded=0;" vertex="1" parent="1">
          <mxGeometry x="20" y="2406" width="190" height="120" as="geometry" />
        </mxCell>
        <mxCell id="l4FqqeskqXj6y2RGuVp2-12" value="&lt;h2&gt;Find Us&lt;/h2&gt;&lt;p&gt;Lorem ipsum dolor sit amet, consectetur adipisicing elit&lt;/p&gt;&lt;p&gt;sed do eiusmod tempor incididunt ut labore et dolore magna aliqua.&lt;br&gt;&lt;/p&gt;" style="text;html=1;strokeColor=none;fillColor=none;spacing=5;spacingTop=-20;whiteSpace=wrap;overflow=hidden;rounded=0;" vertex="1" parent="1">
          <mxGeometry x="340" y="2406" width="190" height="120" as="geometry" />
        </mxCell>
        <mxCell id="l4FqqeskqXj6y2RGuVp2-13" value="" style="verticalLabelPosition=bottom;shadow=0;dashed=0;align=center;html=1;verticalAlign=top;strokeWidth=1;shape=mxgraph.mockup.graphics.simpleIcon;strokeColor=#999999;fontSize=13;fontColor=#0066CC;" vertex="1" parent="1">
          <mxGeometry x="800" y="2446" width="30" height="30" as="geometry" />
        </mxCell>
        <mxCell id="l4FqqeskqXj6y2RGuVp2-14" value="" style="verticalLabelPosition=bottom;shadow=0;dashed=0;align=center;html=1;verticalAlign=top;strokeWidth=1;shape=mxgraph.mockup.graphics.simpleIcon;strokeColor=#999999;fontSize=13;fontColor=#0066CC;" vertex="1" parent="1">
          <mxGeometry x="745" y="2446" width="30" height="30" as="geometry" />
        </mxCell>
        <mxCell id="l4FqqeskqXj6y2RGuVp2-15" value="" style="verticalLabelPosition=bottom;shadow=0;dashed=0;align=center;html=1;verticalAlign=top;strokeWidth=1;shape=mxgraph.mockup.graphics.simpleIcon;strokeColor=#999999;fontSize=13;fontColor=#0066CC;" vertex="1" parent="1">
          <mxGeometry x="630" y="2446" width="30" height="30" as="geometry" />
        </mxCell>
        <mxCell id="l4FqqeskqXj6y2RGuVp2-16" value="" style="verticalLabelPosition=bottom;shadow=0;dashed=0;align=center;html=1;verticalAlign=top;strokeWidth=1;shape=mxgraph.mockup.graphics.simpleIcon;strokeColor=#999999;fontSize=13;fontColor=#0066CC;" vertex="1" parent="1">
          <mxGeometry x="686" y="2446" width="30" height="30" as="geometry" />
        </mxCell>
        <mxCell id="l4FqqeskqXj6y2RGuVp2-17" value="Copyright @ 2023" style="text;html=1;strokeColor=none;fillColor=none;align=center;verticalAlign=middle;whiteSpace=wrap;rounded=0;" vertex="1" parent="1">
          <mxGeometry x="353" y="2626" width="145" height="30" as="geometry" />
        </mxCell>
        <mxCell id="l4FqqeskqXj6y2RGuVp2-18" value="" style="line;strokeWidth=2;html=1;" vertex="1" parent="1">
          <mxGeometry x="80" y="2576" width="700" height="10" as="geometry" />
        </mxCell>
        <mxCell id="l4FqqeskqXj6y2RGuVp2-19" value="" style="verticalLabelPosition=bottom;shadow=0;dashed=0;align=center;html=1;verticalAlign=top;strokeWidth=1;shape=mxgraph.mockup.graphics.simpleIcon;strokeColor=#999999;fontSize=13;fontColor=#0066CC;" vertex="1" parent="1">
          <mxGeometry x="430" y="830" width="420" height="320" as="geometry" />
        </mxCell>
        <mxCell id="l4FqqeskqXj6y2RGuVp2-20" value="&lt;h1&gt;Service 2&lt;/h1&gt;&lt;p&gt;Lorem ipsum dolor sit amet, consectetur adipisicing elit, sed do eiusmod tempor incididunt ut labore et dolore magna aliqua.&lt;/p&gt;" style="text;html=1;strokeColor=none;fillColor=none;spacing=5;spacingTop=-20;whiteSpace=wrap;overflow=hidden;rounded=0;" vertex="1" parent="1">
          <mxGeometry x="60" y="910" width="280" height="130" as="geometry" />
        </mxCell>
        <mxCell id="l4FqqeskqXj6y2RGuVp2-21" value="" style="verticalLabelPosition=bottom;shadow=0;dashed=0;align=center;html=1;verticalAlign=top;strokeWidth=1;shape=mxgraph.mockup.graphics.simpleIcon;strokeColor=#999999;fontSize=13;fontColor=#0066CC;" vertex="1" parent="1">
          <mxGeometry x="3" y="1160" width="420" height="320" as="geometry" />
        </mxCell>
        <mxCell id="l4FqqeskqXj6y2RGuVp2-22" value="&lt;h1&gt;Service 3&lt;/h1&gt;&lt;p&gt;Lorem ipsum dolor sit amet, consectetur adipisicing elit, sed do eiusmod tempor incididunt ut labore et dolore magna aliqua.&lt;/p&gt;" style="text;html=1;strokeColor=none;fillColor=none;spacing=5;spacingTop=-20;whiteSpace=wrap;overflow=hidden;rounded=0;" vertex="1" parent="1">
          <mxGeometry x="510" y="1255" width="280" height="130" as="geometry" />
        </mxCell>
        <mxCell id="l4FqqeskqXj6y2RGuVp2-23" value="" style="verticalLabelPosition=bottom;shadow=0;dashed=0;align=center;html=1;verticalAlign=top;strokeWidth=1;shape=mxgraph.mockup.graphics.simpleIcon;strokeColor=#999999;fontSize=13;fontColor=#0066CC;" vertex="1" parent="1">
          <mxGeometry y="500" width="420" height="320" as="geometry" />
        </mxCell>
        <mxCell id="l4FqqeskqXj6y2RGuVp2-24" value="&lt;h1&gt;Service 1&lt;/h1&gt;&lt;p&gt;Lorem ipsum dolor sit amet, consectetur adipisicing elit, sed do eiusmod tempor incididunt ut labore et dolore magna aliqua.&lt;/p&gt;" style="text;html=1;strokeColor=none;fillColor=none;spacing=5;spacingTop=-20;whiteSpace=wrap;overflow=hidden;rounded=0;" vertex="1" parent="1">
          <mxGeometry x="505" y="595" width="280" height="130" as="geometry" />
        </mxCell>
        <mxCell id="l4FqqeskqXj6y2RGuVp2-32" value="" style="verticalLabelPosition=bottom;shadow=0;dashed=0;align=center;html=1;verticalAlign=top;strokeWidth=1;shape=mxgraph.mockup.graphics.simpleIcon;strokeColor=#999999;fontSize=13;fontColor=#0066CC;" vertex="1" parent="1">
          <mxGeometry x="430" y="1490" width="420" height="320" as="geometry" />
        </mxCell>
        <mxCell id="l4FqqeskqXj6y2RGuVp2-33" value="&lt;h1&gt;Service 4&lt;/h1&gt;&lt;p&gt;Lorem ipsum dolor sit amet, consectetur adipisicing elit, sed do eiusmod tempor incididunt ut labore et dolore magna aliqua.&lt;/p&gt;" style="text;html=1;strokeColor=none;fillColor=none;spacing=5;spacingTop=-20;whiteSpace=wrap;overflow=hidden;rounded=0;" vertex="1" parent="1">
          <mxGeometry x="60" y="1570" width="280" height="130" as="geometry" />
        </mxCell>
        <mxCell id="l4FqqeskqXj6y2RGuVp2-34" value="" style="verticalLabelPosition=bottom;shadow=0;dashed=0;align=center;html=1;verticalAlign=top;strokeWidth=1;shape=mxgraph.mockup.graphics.simpleIcon;strokeColor=#999999;fontSize=13;fontColor=#0066CC;" vertex="1" parent="1">
          <mxGeometry x="3" y="1820" width="420" height="320" as="geometry" />
        </mxCell>
        <mxCell id="l4FqqeskqXj6y2RGuVp2-35" value="&lt;h1&gt;Service 5&lt;/h1&gt;&lt;p&gt;Lorem ipsum dolor sit amet, consectetur adipisicing elit, sed do eiusmod tempor incididunt ut labore et dolore magna aliqua.&lt;/p&gt;" style="text;html=1;strokeColor=none;fillColor=none;spacing=5;spacingTop=-20;whiteSpace=wrap;overflow=hidden;rounded=0;" vertex="1" parent="1">
          <mxGeometry x="510" y="1915" width="280" height="130" as="geometry" />
        </mxCell>
        <mxCell id="l4FqqeskqXj6y2RGuVp2-36" value="" style="rounded=0;whiteSpace=wrap;html=1;" vertex="1" parent="1">
          <mxGeometry y="2207" width="850" height="90" as="geometry" />
        </mxCell>
        <mxCell id="l4FqqeskqXj6y2RGuVp2-37" value="&lt;b&gt;All services are at starting prices and may be subject to change. Price varies depending on hair length.&lt;/b&gt;&lt;span style=&quot;color: rgb(68, 68, 68); font-family: Calibri, sans-serif, &amp;quot;Mongolian Baiti&amp;quot;, &amp;quot;Microsoft Yi Baiti&amp;quot;, &amp;quot;Javanese Text&amp;quot;, &amp;quot;Yu Gothic&amp;quot;; font-size: 14.6667px; text-align: left;&quot;&gt;&amp;nbsp;&lt;/span&gt;&lt;span style=&quot;font-family: Calibri, sans-serif, &amp;quot;Mongolian Baiti&amp;quot;, &amp;quot;Microsoft Yi Baiti&amp;quot;, &amp;quot;Javanese Text&amp;quot;, &amp;quot;Yu Gothic&amp;quot;; font-size: 14.6667px; text-align: left;&quot;&gt;Sed&lt;/span&gt;&lt;span style=&quot;font-family: Calibri, sans-serif, &amp;quot;Mongolian Baiti&amp;quot;, &amp;quot;Microsoft Yi Baiti&amp;quot;, &amp;quot;Javanese Text&amp;quot;, &amp;quot;Yu Gothic&amp;quot;; font-size: 14.6667px; text-align: left;&quot;&gt; &lt;/span&gt;&lt;span style=&quot;font-family: Calibri, sans-serif, &amp;quot;Mongolian Baiti&amp;quot;, &amp;quot;Microsoft Yi Baiti&amp;quot;, &amp;quot;Javanese Text&amp;quot;, &amp;quot;Yu Gothic&amp;quot;; font-size: 14.6667px; text-align: left;&quot;&gt;sed lectus risus. Vestibulum maximus ac purus in euismod. In venenatis tellus ante, id porta risus semper quis. Aenean vel posuere urna, sit amet placerat massa. Quisque efficitur interdum libero, sed dictum lorem euismod sed.&lt;/span&gt;" style="text;html=1;strokeColor=none;fillColor=none;align=center;verticalAlign=middle;whiteSpace=wrap;rounded=0;" vertex="1" parent="1">
          <mxGeometry x="10" y="2210" width="820" height="80" as="geometry" />
        </mxCell>
      </root>
    </mxGraphModel>
  </diagram>
</mxfile>
